<?xml version="1.0" encoding="utf-8"?><svg xml:space="preserve" viewBox="0 0 100 100" y="0" x="0" xmlns="http://www.w3.org/2000/svg" id="圖層_1" version="1.1" width="128px" height="128px" xmlns:xlink="http://www.w3.org/1999/xlink" style="width:100%;height:100%;background-size:initial;background-repeat-y:initial;background-repeat-x:initial;background-position-y:initial;background-position-x:initial;background-origin:initial;background-image:initial;background-color:rgb(255, 255, 255);background-clip:initial;background-attachment:initial;animation-play-state:paused" ><g class="ldl-scale" style="transform-origin:50% 50%;transform:rotate(0deg) scale(0.8, 0.8);animation-play-state:paused" ><path fill="#009245" d="M56.56 35.335c.172-7.453 4.628-14.657 11.219-18.14 1.149 1.017 1.754 2.516 2.105 4.01 1.431 6.079-1.06 12.898-6.073 16.622-1.032.767-2.186 1.44-2.893 2.514-.706 1.074-.763 2.726.28 3.477-3.075-1.637-4.716-5.12-4.638-8.483z" style="fill:rgb(0, 146, 69);animation-play-state:paused" ></path>
<g style="animation-play-state:paused" ><path fill="#009245" d="M70.006 27.64c-2.88 2.468-5.323 5.439-7.09 8.801a14.696 14.696 0 0 0-1.155 2.953c.628-.576 1.362-1.055 2.05-1.567 3.273-2.432 5.462-6.184 6.195-10.187z" style="fill:rgb(0, 146, 69);animation-play-state:paused" ></path>
<path fill="#009245" d="M89.268 20.062c-6.044.153-11.968 2.246-16.904 5.728-.332 5.332-2.99 10.551-7.286 13.742-.22.163-.444.322-.669.482-.705.499-1.371.971-1.715 1.495-.172.262-.192.6-.154.701a.304.304 0 0 0-.101-.116L61.26 43.99c.126 2.304.827 4.567 2.212 6.504-.874-1.653.27-3.769 1.885-4.711s3.555-1.073 5.396-1.405c8.941-1.609 16.598-8.883 18.665-17.729.507-2.173.689-4.519-.15-6.587z" style="fill:rgb(0, 146, 69);animation-play-state:paused" ></path></g>
<path fill="#fcee21" d="M87.594 53.378a5.256 5.256 0 0 0-2.173-.621C81.477 39.244 67.118 29.226 50 29.226c-17.463 0-32.052 10.427-35.645 24.354-2.49.666-4.355 3.341-4.355 6.545 0 3.171 1.827 5.822 4.28 6.521 1.224 4.965 3.849 9.491 7.5 13.273C28.474 86.852 38.626 91.278 50 91.278c17.226 0 31.655-10.146 35.491-23.79 3.211-.23 5.759-3.434 5.759-7.364 0-3.017-1.504-5.602-3.656-6.746z" style="fill:rgb(252, 238, 33);animation-play-state:paused" ></path>
<path opacity=".2" d="M87.594 53.378c-.885 3.033-3.139 5.238-5.831 5.438-4.155 15.336-19.783 26.741-38.44 26.741-7.949 0-15.345-2.076-21.543-5.638C28.474 86.852 38.626 91.278 50 91.278c17.226 0 31.655-10.146 35.491-23.79 3.211-.23 5.759-3.434 5.759-7.364 0-3.017-1.504-5.602-3.656-6.746z" style="animation-play-state:paused" ></path>
<path fill="#fff" stroke-miterlimit="10" stroke-linecap="round" stroke-width="4.124" stroke="#fff" d="M40.767 36.504c-3.606-.698-8.823 2.535-9.966 4.878" style="stroke:rgb(255, 255, 255);fill:rgb(255, 255, 255);animation-play-state:paused" ></path>
<circle r="2.451" fill="#fff" cy="47.309" cx="26.55" transform="rotate(-86.664 26.55 47.309)" style="fill:rgb(255, 255, 255);animation-play-state:paused" ></circle>
<metadata xmlns:d="https://loading.io/stock/" style="animation-play-state:paused" ><d:name style="animation-play-state:paused" >lemon</d:name>


<d:tags style="animation-play-state:paused" >lemon,fruit</d:tags>


<d:license style="animation-play-state:paused" >by</d:license>


<d:slug style="animation-play-state:paused" >xmdbfy</d:slug></metadata></g><!-- generated by https://loading.io/ --></svg>